<?xml version="1.0" encoding="iso-8859-1"?>
<!-- Uploaded to: SVG Repo, www.svgrepo.com, Generator: SVG Repo Mixer Tools -->
<svg height="800px" width="800px" version="1.1" id="Layer_1" xmlns="http://www.w3.org/2000/svg" xmlns:xlink="http://www.w3.org/1999/xlink" 
	 viewBox="0 0 512 512" xml:space="preserve">
<g>
	<path style="fill:#556080;" d="M105.931,512H35.31v-17.655c0-19.5,15.81-35.31,35.31-35.31s35.31,15.81,35.31,35.31V512z"/>
	<path style="fill:#F3D55B;" d="M344.276,88.276c0,48.755-39.521,88.276-88.276,88.276s-88.276-39.521-88.276-88.276
		S207.245,0,256,0S344.276,39.521,344.276,88.276"/>
	<path style="fill:#8697CB;" d="M97.103,397.241c0,14.627-11.855,26.483-26.483,26.483s-26.483-11.855-26.483-26.483
		c0-14.627,11.855-26.483,26.483-26.483S97.103,382.614,97.103,397.241"/>
	<path style="fill:#556080;" d="M291.31,512H220.69v-17.655c0-19.5,15.81-35.31,35.31-35.31s35.31,15.81,35.31,35.31V512z"/>
	<path style="fill:#8697CB;" d="M282.483,397.241c0,14.627-11.855,26.483-26.483,26.483c-14.627,0-26.483-11.855-26.483-26.483
		c0-14.627,11.855-26.483,26.483-26.483C270.627,370.759,282.483,382.614,282.483,397.241"/>
	<path style="fill:#556080;" d="M476.69,512h-70.621v-17.655c0-19.5,15.81-35.31,35.31-35.31c19.5,0,35.31,15.81,35.31,35.31V512z"
		/>
	<path style="fill:#8697CB;" d="M467.862,397.241c0,14.627-11.855,26.483-26.483,26.483s-26.483-11.855-26.483-26.483
		c0-14.627,11.855-26.483,26.483-26.483S467.862,382.614,467.862,397.241"/>
	<g>
		<path style="fill:#F9EBB0;" d="M256,185.379c-4.873,0-8.828-3.955-8.828-8.828V52.966c0-4.873,3.955-8.828,8.828-8.828
			s8.828,3.955,8.828,8.828v123.586C264.828,181.425,260.873,185.379,256,185.379"/>
		<path style="fill:#F9EBB0;" d="M273.655,88.276h-35.31c-4.873,0-8.828-3.955-8.828-8.828c0-4.873,3.955-8.828,8.828-8.828h35.31
			c4.873,0,8.828,3.955,8.828,8.828C282.483,84.321,278.528,88.276,273.655,88.276"/>
		<path style="fill:#F9EBB0;" d="M273.655,123.586h-35.31c-4.873,0-8.828-3.955-8.828-8.828s3.955-8.828,8.828-8.828h35.31
			c4.873,0,8.828,3.955,8.828,8.828S278.528,123.586,273.655,123.586"/>
	</g>
	<g>
		<path style="fill:#ECF0F1;" d="M70.621,338.672c-4.873,0-8.828-3.955-8.828-8.828v-35.31c0-4.873,3.955-8.828,8.828-8.828
			s8.828,3.955,8.828,8.828v35.31C79.448,334.717,75.494,338.672,70.621,338.672"/>
		<path style="fill:#ECF0F1;" d="M441.379,338.672c-4.873,0-8.828-3.955-8.828-8.828v-35.31c0-4.873,3.955-8.828,8.828-8.828
			s8.828,3.955,8.828,8.828v35.31C450.207,334.717,446.252,338.672,441.379,338.672"/>
		<path style="fill:#ECF0F1;" d="M441.379,303.362H70.621c-4.873,0-8.828-3.955-8.828-8.828s3.955-8.828,8.828-8.828h370.759
			c4.873,0,8.828,3.955,8.828,8.828S446.252,303.362,441.379,303.362"/>
		<path style="fill:#ECF0F1;" d="M256,338.672c-4.873,0-8.828-3.955-8.828-8.828v-79.448c0-4.873,3.955-8.828,8.828-8.828
			s8.828,3.955,8.828,8.828v79.448C264.828,334.717,260.873,338.672,256,338.672"/>
		<path style="fill:#ECF0F1;" d="M308.966,158.897c-16.066,7.645-33.986,12.05-52.966,12.05s-36.899-4.405-52.966-12.05v47.36
			h105.931V158.897z"/>
	</g>
	<polygon style="fill:#AAB7BA;" points="291.31,250.396 220.69,250.396 203.034,206.258 308.966,206.258 	"/>
</g>
</svg>